<svg width="32" height="32" viewBox="0 0 32 32" fill="none" xmlns="http://www.w3.org/2000/svg"><path d="M0 16C0 7.163 7.163 0 16 0s16 7.163 16 16-7.163 16-16 16S0 24.837 0 16z" fill="#fff"/><path d="M20.418 17.01l2.315-2.308a4.312 4.312 0 0 0 0-6.106 4.346 4.346 0 0 0-6.125 0l-3.341 3.33a4.312 4.312 0 0 0 .81 6.74l1.79-1.782a1.96 1.96 0 0 1-.93-3.292l3.342-3.33a1.976 1.976 0 0 1 2.784 0 1.96 1.96 0 0 1 0 2.775l-.982.978c.405.95.517 1.993.337 2.995z" fill="#132E57"/><path d="M10.915 14.324L8.6 16.63a4.312 4.312 0 0 0 0 6.106 4.346 4.346 0 0 0 6.126 0l3.34-3.33a4.312 4.312 0 0 0-.81-6.74l-1.789 1.783c.34.081.664.252.93.516a1.96 1.96 0 0 1 0 2.776l-3.342 3.33a1.976 1.976 0 0 1-2.785 0 1.96 1.96 0 0 1 0-2.775l.982-.979a5.272 5.272 0 0 1-.337-2.994z" fill="#132E57"/></svg>